<?xml version="1.0" encoding="UTF-8" standalone="no"?>
<svg
   xmlns:dc="http://purl.org/dc/elements/1.1/"
   xmlns:cc="http://creativecommons.org/ns#"
   xmlns:rdf="http://www.w3.org/1999/02/22-rdf-syntax-ns#"
   xmlns:svg="http://www.w3.org/2000/svg"
   xmlns="http://www.w3.org/2000/svg"
   height="39.605579"
   width="149.59044"
   xml:space="preserve"
   enable-background="new 0 0 174 46"
   viewBox="0 0 149.59044 39.605579"
   y="0px"
   x="0px"
   id="Layer_1"
   version="1.1"><metadata
   id="metadata196"><rdf:RDF><cc:Work
       rdf:about=""><dc:format>image/svg+xml</dc:format><dc:type
         rdf:resource="http://purl.org/dc/dcmitype/StillImage" /><dc:title></dc:title></cc:Work></rdf:RDF></metadata><defs
   id="defs194">
	
	
	
	
	
	
	
	

		
		
		
		
		
		
		
		
		
		
		
		
		
		
		
		
		
		
		
		
		
	</defs>
<path
   d="m 131.99044,26.305578 c -0.3,0 -0.9,0 -1.7,-0.3 -1.4,-0.6 -2.5,-1.7 -3.7,-2.8 -0.7,-0.7 -3.6,-3.6 -5.5,-5.7 2.2,-1 3.7,-3.1 3.7,-5.8 0,-0.5 -0.1,-0.9 -0.2,-1.4 -0.2,-0.7000003 -0.6,-1.3000003 -1,-1.7000003 0,0 -0.1,-0.1 -0.1,-0.1 -0.4,-0.4 -1.6,-1.5 -4.9,-1.5 -0.1,0 -0.2,0 -0.3,0 0,0 0,0 -0.1,0 -0.9,0 -2.8,0.1 -3.5,0.1 -0.6,0 -1.9,0 -3.1,-0.1 0,0 0,0 -0.1,0 -0.1,0 -0.2,0 -0.2,0 -0.1,0 -0.2,0 -0.3,0 0,0 0,0 0,0 0,0 0,0 -0.1,0 -0.4,0 -0.6,0.1 -0.6,0.2 0,0.2 0.2,0.3 0.5,0.3 0.4,0 0.9,0 1.1,0.1 0.9,0.2 1.1,0.5 1.2,1.4 0,0.8 0,1.6000003 0,5.5000003 v 4.6 c 0,2.4 0,4.5 -0.1,5.6 -0.1,0.8 -0.2,1.3 -0.8,1.4 -0.2,0.1 -0.6,0.1 -1,0.1 -0.3,0 -0.4,0.2 -0.4,0.3 0,0.2 0.2,0.3 0.5,0.3 0,0 0.1,0 0.1,0 0,0 0,0 0,0 1,0 2.7,-0.1 3.3,-0.1 0.7,0 2.3,0.1 4.1,0.1 0,0 0,0 0,0 0.3,0 0.5,-0.1 0.5,-0.3 0,-0.1 -0.1,-0.2 -0.4,-0.2 -0.4,0 -1,-0.1 -1.3,-0.1 -0.8,-0.1 -0.9,-0.7 -1,-1.4 -0.1,-1.1 -0.1,-3.2 -0.1,-5.6 V 8.8055777 c 0,-0.3 0.1,-0.4 0.2,-0.5 0.1,0 0.2,0 0.3,-0.1 0.2,0 0.5,0 0.7,0 0.6,0 1.7,0.2 2.6,1 0.6,0.6 1,1.2000003 1.2,1.9000003 0.3,0.7 0.3,1.4 0.3,1.9 0,0 0,0.1 0,0.1 0,1.5 -0.6,2.6 -1.4,3.4 -0.7,0.6 -1.4,0.9 -2.1,0.9 -0.5,0 -0.7,0.1 -0.7,0.3 0,0 0,0 0,0.1 v 0 c 0,0 0,0 0,0 1.4,1.7 5.5,6.4 6.5,7.3 1.2,1 2.1,1.6 3.5,1.7 0.6,0.1 1.1,0.1 1.9,0.1 h 2.4 c 0.5,0 0.6,-0.1 0.6,-0.3 -0.1,-0.2 -0.3,-0.3 -0.5,-0.3 z"
   id="path131"
   style="fill:#5b5a5d" /><path
   d="m 2.610028,10.469089 c 0,-5.583515 0,-6.5606299 0,-7.6773327 C 2.496548,1.5354658 2.269589,1.1167027 1.588713,0.8375269 1.248275,0.6979391 0.907835,0.6979391 0.453918,0.6979391 0.113479,0.6979391 0,0.5583513 0,0.2791756 0,0 0.226959,0 0.680876,0 1.815672,0 3.971781,0.1395878 4.766136,0.1395878 5.560492,0.1395878 7.489642,0 8.737916,0 c 0.340438,0 0.680877,0.1395878 0.680877,0.2791756 0,0.2791757 -0.226959,0.4187635 -0.453918,0.4187635 -0.340438,0 -0.567397,0 -0.907835,0.1395878 C 7.262684,0.9771149 6.922245,1.5354658 6.922245,2.7917563 6.808766,3.9084591 6.808766,5.0251618 6.808766,10.469089 v 6.42104 c 0,3.489696 0,6.421041 0.113479,7.956507 0.11348,0.977115 0.340439,1.535466 1.248274,1.675054 0.453918,0.139588 1.134794,0.139588 1.588712,0.139588 0.340438,0 0.453917,0.279176 0.453917,0.418764 0,0.279175 -0.226958,0.418763 -0.567397,0.418763 -2.042629,0 -4.085259,-0.139588 -4.993094,-0.139588 -0.680876,0 -2.836985,0.139588 -3.971781,0.139588 -0.340438,0 -0.567397,-0.139588 -0.567397,-0.418763 0,-0.139588 0.11348,-0.418764 0.453918,-0.418764 0.453919,0 0.794357,0 1.134795,-0.139588 0.680877,-0.139588 0.794356,-0.697939 0.907836,-1.814642 0.113479,-1.535466 0.113479,-4.466811 0.113479,-7.956506 v -6.281453 z"
   id="path135"
   style="fill:#5b5a5d;stroke-width:1.25858438" /><path
   d="m 38.490438,15.805578 h 0.1 c 0.9,-1 4.9,-4.9 5.7,-5.8 0.8,-0.9000003 1.4,-1.5000003 1.4,-1.9000003 0,-0.3 -0.1,-0.5 -0.4,-0.5 -0.2,-0.1 -0.4,-0.1 -0.4,-0.3 0,-0.2 0.2,-0.2 0.4,-0.2 0.6,0 2.1,0.1 2.8,0.1 0.8,0 2.3,-0.1 3.2,-0.1 0.3,0 0.5,0.1 0.5,0.2 0,0.2 -0.2,0.3 -0.4,0.3 -0.4,0 -1.1,0.1 -1.6,0.3 -0.9,0.3 -1.7,0.9 -2.9,1.9 -0.9,0.8000003 -4.9,4.6000003 -5.7,5.6000003 1,1.2 6.3,6.8 7.3,7.8 1.2,1.1 2.2,2.2 3.7,2.8 0.8,0.3 1.4,0.3 1.7,0.3 0.2,0 0.4,0.1 0.4,0.3 0,0.2 -0.2,0.3 -0.6,0.3 h -2.4 c -0.8,0 -1.3,0 -1.9,-0.1 -1.4,-0.1 -2.3,-0.7 -3.5,-1.7 -1.2,-1 -6.4,-7 -7,-7.8 l -0.3,-0.4 h -0.1 v 2.4 c 0,2.4 0,4.5 0.1,5.6 0.1,0.7 0.3,1.2 1,1.4 0.4,0.1 1,0.1 1.3,0.1 0.2,0 0.4,0.2 0.4,0.3 0,0.2 -0.2,0.3 -0.5,0.3 -1.5,0 -3.4,-0.1 -4.1,-0.1 -0.6,0 -2.3,0.1 -3.4,0.1 -0.3,0 -0.5,-0.1 -0.5,-0.3 0,-0.1 0.1,-0.3 0.4,-0.3 0.4,0 0.7,0 1,-0.1 0.6,-0.1 0.7,-0.6 0.8,-1.4 0.1,-1.1 0.1,-3.2 0.1,-5.6 v -4.6 c 0,-4 0,-4.7 0,-5.5000003 -0.1,-0.9 -0.3,-1.2 -1.2,-1.4 -0.2,-0.1 -0.7,-0.1 -1.1,-0.1 -0.3,0 -0.5,-0.1 -0.5,-0.3 0,-0.2 0.2,-0.2 0.6,-0.2 1.4,0 3.1,0.1 3.8,0.1 0.6,0 2.6,-0.1 3.5,-0.1 0.4,0 0.6,0.1 0.6,0.2 0,0.2 -0.2,0.3 -0.4,0.3 -0.3,0 -0.4,0 -0.8,0.1 -0.7,0.1 -1,0.5 -1,1.4 0,0.8000003 0,1.6000003 0,5.5000003 v 1.1 z"
   id="path137"
   style="fill:#5b5a5d" /><path
   d="m 88.490436,18.705578 c -0.2,0 -0.2,0 -0.3,0.2 l -1.8,4.4 c -0.3,0.8 -0.5,1.6 -0.5,2 0,0.6 0.3,0.9 1.3,0.9 h 0.5 c 0.4,0 0.5,0.2 0.5,0.3 0,0.3 -0.2,0.3 -0.5,0.3 -1.1,0 -2.7,-0.1 -3.7,-0.1 -0.3,0 -2.1,0.1 -3.9,0.1 -0.4,0 -0.6,-0.1 -0.6,-0.3 0,-0.2 0.1,-0.3 0.4,-0.3 0.3,0 0.7,0 1,0 1.5,-0.2 2.1,-1.2 2.8,-2.9 l 8.8,-20.5000003 c 0.4,-0.9 0.6,-1.3 1,-1.3 0.5,0 0.7,0.3 1,1 0.8,1.8 6.400004,15.1000003 8.600004,20.0000003 1.3,2.9 2.3,3.4 2.9,3.5 0.5,0.1 0.9,0.1 1.3,0.1 0.3,0 0.5,0.1 0.5,0.3 0,0.3 -0.2,0.3 -1.5,0.3 -1.2,0 -3.6,0 -6.500004,-0.1 -0.6,0 -1,0 -1,-0.3 0,-0.2 0.1,-0.3 0.4,-0.3 0.2,0 0.5,-0.3 0.3,-0.7 l -2.6,-6.5 c -0.1,-0.2 -0.2,-0.2 -0.3,-0.2 h -8.1 z m 7.1,-1.8 c 0.2,0 0.2,-0.1 0.2,-0.2 l -3.2,-8.3000003 c 0,-0.1 -0.1,-0.3 -0.2,-0.3 -0.1,0 -0.2,0.2 -0.2,0.3 l -3.3,8.2000003 c -0.1,0.2 0,0.2 0.1,0.2 h 6.6 z"
   id="path141"
   style="fill:#5b5a5d" /><path
   d="m 138.69044,8.7055777 -4,0.1 c -1.6,0 -2.2,0.2 -2.6,0.8 -0.3,0.4000003 -0.4,0.7000003 -0.5,0.9000003 -0.1,0.2 -0.1,0.3 -0.3,0.3 -0.2,0 -0.2,-0.2 -0.2,-0.4 0,-0.4 0.5,-3.0000003 0.6,-3.2000003 0.1,-0.3 0.2,-0.5 0.3,-0.5 0.2,0 0.5,0.2 1.2,0.3 0.8,0.1 1.8,0.1 2.7,0.1 h 11 c 0.9,0 1.4,-0.1 1.8,-0.1 0.4,-0.1 0.6,-0.1 0.7,-0.1 0.2,0 0.2,0.2 0.2,0.6 0,0.6 -0.1,2.5000003 -0.1,3.2000003 0,0.3 -0.1,0.4 -0.2,0.4 -0.2,0 -0.3,-0.1 -0.3,-0.5 v -0.3 c -0.1,-0.7000003 -0.8,-1.5000003 -3.2,-1.5000003 l -3.4,-0.1 V 19.305578 c 0,2.4 0,4.5 0.2,5.6 0.1,0.7 0.2,1.2 1,1.4 0.4,0.1 1,0.1 1.4,0.1 0.3,0 0.4,0.2 0.4,0.3 0,0.2 -0.2,0.3 -0.5,0.3 -1.8,0 -3.6,-0.1 -4.4,-0.1 -0.6,0 -2.5,0.1 -3.5,0.1 -0.3,0 -0.5,-0.1 -0.5,-0.3 0,-0.1 0.1,-0.3 0.4,-0.3 0.4,0 0.7,0 1,-0.1 0.6,-0.1 0.7,-0.6 0.8,-1.4 0.1,-1.1 0.1,-3.2 0.1,-5.6 V 8.7055777 Z"
   id="path143"
   style="fill:#5b5a5d" /><path
   style="fill:#5b5a5d;stroke-width:0.94091421"
   id="path145"
   d="m 2.685178,31.605578 1.859172,5.2 1.85917,-5.2 h 1.062384 l -3.010086,8 -2.921555,-8 z" /><path
   style="fill:#5b5a5d;stroke-width:0.94091421"
   id="path147"
   d="m 10.47599,31.605578 v 7.5 H 9.502139 v -7.5 z" /><path
   style="fill:#5b5a5d;stroke-width:0.94091421"
   id="path149"
   d="m 16.938823,32.705578 -0.796787,0.5 c -0.177064,-0.3 -0.265596,-0.5 -0.44266,-0.6 -0.177064,-0.1 -0.354128,-0.2 -0.531192,-0.2 -0.265596,0 -0.531192,0.1 -0.708255,0.3 -0.177064,0.2 -0.265596,0.4 -0.265596,0.7 0,0.4 0.265596,0.7 0.708255,0.9 l 0.619724,0.3 c 0.531192,0.2 0.973852,0.5 1.150915,0.9 0.265596,0.4 0.354128,0.8 0.354128,1.3 0,0.7 -0.177064,1.3 -0.619723,1.7 -0.44266,0.5 -0.88532,0.7 -1.505044,0.7 -0.531191,0 -1.062383,-0.2 -1.416511,-0.6 -0.354128,-0.4 -0.619724,-0.9 -0.708256,-1.6 l 0.973852,-0.3 c 0.08853,0.4 0.08853,0.7 0.265596,0.9 0.177064,0.3 0.531191,0.5 0.885319,0.5 0.354128,0 0.531192,-0.1 0.796788,-0.4 0.177064,-0.2 0.265596,-0.5 0.265596,-0.9 0,-0.1 0,-0.3 -0.08853,-0.4 0,-0.1 -0.08853,-0.2 -0.177064,-0.3 -0.08853,-0.1 -0.177064,-0.2 -0.265596,-0.3 -0.08853,-0.1 -0.265596,-0.2 -0.44266,-0.3 l -0.619723,-0.3 c -0.88532,-0.4 -1.32798,-1.1 -1.32798,-1.9 0,-0.6 0.177064,-1 0.531192,-1.4 0.354128,-0.4 0.88532,-0.6 1.416511,-0.6 0.88532,0.1 1.505044,0.5 1.947703,1.4 z" /><path
   style="fill:#5b5a5d;stroke-width:0.94091421"
   id="path151"
   d="m 20.39157,31.605578 v 4.5 c 0,0.6 0.08853,1.1 0.265596,1.4 0.265595,0.4 0.708255,0.6 1.150915,0.6 0.531192,0 0.88532,-0.2 1.150915,-0.6 0.177064,-0.3 0.265596,-0.8 0.265596,-1.4 v -4.5 h 0.973852 v 4.8 c 0,0.8 -0.177064,1.4 -0.619724,1.9 -0.531192,0.6 -1.062383,0.9 -1.770639,0.9 -0.708256,0 -1.327979,-0.3 -1.770639,-0.9 -0.44266,-0.5 -0.619724,-1.2 -0.619724,-1.9 v -4.8 z" /><path
   style="fill:#5b5a5d;stroke-width:0.94091421"
   id="path153"
   d="m 30.661277,37.205578 h -2.833023 l -0.708256,1.8 h -1.062383 l 3.275682,-8 3.187151,8 h -1.062384 z m -0.354128,-1 -0.973852,-2.5 -1.062383,2.5 z" /><path
   style="fill:#5b5a5d;stroke-width:0.94091421"
   id="path155"
   d="m 35.442002,31.605578 v 6.4 h 1.947703 v 1.1 h -2.921554 v -7.5 z" /><path
   style="fill:#5b5a5d;stroke-width:0.94091421"
   id="path157"
   d="M 47.216753,37.205578 H 44.38373 l -0.708256,1.8 h -1.062383 l 3.275682,-8 3.187151,8 H 48.01354 Z m -0.44266,-1 -0.973852,-2.6 -1.062383,2.5 h 2.036235 z" /><path
   style="fill:#5b5a5d;stroke-width:0.94091421"
   id="path159"
   d="m 53.236926,35.905578 2.036235,3.2 h -1.239448 l -1.859171,-3.1 h -0.177064 v 3.1 h -0.973851 v -7.5 h 1.150915 c 0.88532,0 1.505044,0.2 1.859171,0.6 0.44266,0.4 0.619724,1 0.619724,1.6 0,0.5 -0.177064,1 -0.44266,1.4 -0.177064,0.3 -0.531191,0.6 -0.973851,0.7 z m -1.239448,-0.9 h 0.354128 c 0.973852,0 1.416512,-0.4 1.416512,-1.2 0,-0.8 -0.44266,-1.1 -1.416512,-1.1 h -0.354128 z" /><path
   style="fill:#5b5a5d;stroke-width:0.94091421"
   id="path161"
   d="m 59.168567,32.605578 v 6.4 h -0.973852 v -6.4 h -1.505043 v -1.1 h 4.07247 v 1.1 z" /><path
   style="fill:#5b5a5d;stroke-width:0.94091421"
   id="path163"
   d="m 70.235062,32.605578 h -2.655959 v 1.8 h 2.567427 v 1.1 h -2.567427 v 2.5 h 2.655959 v 1.1 h -3.629811 v -7.5 h 3.629811 z" /><path
   style="fill:#5b5a5d;stroke-width:0.94091421"
   id="path165"
   d="m 72.625424,39.005578 v -8 l 4.869258,5.7 v -5.2 h 0.973854 v 7.9 l -4.86926,-5.7 v 5.2 h -0.973852 z" /><path
   style="fill:#5b5a5d;stroke-width:0.94091421"
   id="path167"
   d="m 86.170816,32.005578 v 1.3 c -0.61973,-0.5 -1.15092,-0.8 -1.77064,-0.8 -0.70826,0 -1.23945,0.3 -1.68211,0.8 -0.44266,0.5 -0.70825,1.2 -0.70825,2 0,0.8 0.26559,1.4 0.70825,2 0.44266,0.5 1.06239,0.8 1.68211,0.8 0.35413,0 0.61972,-0.1 0.88532,-0.2 0.17706,-0.1 0.26559,-0.2 0.44266,-0.3 0.17706,-0.1 0.26559,-0.2 0.44266,-0.4 v 1.4 c -0.5312,0.4 -1.15092,0.5 -1.77064,0.5 -0.97385,0 -1.77064,-0.4 -2.39036,-1.1 -0.70826,-0.8 -0.97386,-1.7 -0.97386,-2.7 0,-1 0.2656,-1.8 0.79679,-2.5 0.70826,-0.9 1.59358,-1.4 2.65596,-1.4 0.53119,0 1.15091,0.2 1.68211,0.6 z" /><path
   style="fill:#5b5a5d;stroke-width:0.94091421"
   id="path169"
   d="m 89.889156,35.805578 -2.12477,-4.2 h 1.15092 l 1.50504,3 1.50504,-3 h 1.15092 l -2.2133,4.2 v 3.2 h -0.97385 z" /><path
   style="fill:#5b5a5d;stroke-width:0.94091421"
   id="path171"
   d="m 99.539136,32.005578 v 1.3 c -0.61972,-0.5 -1.15091,-0.8 -1.77064,-0.8 -0.70825,0 -1.23944,0.3 -1.6821,0.8 -0.44266,0.5 -0.70826,1.2 -0.70826,2 0,0.8 0.2656,1.4 0.70826,2 0.44266,0.5 1.06238,0.8 1.6821,0.8 0.35413,0 0.61973,-0.1 0.88532,-0.2 0.17707,-0.1 0.2656,-0.2 0.44266,-0.3 0.17707,-0.1 0.2656,-0.2 0.44266,-0.4 v 1.4 c -0.53119,0.4 -1.15091,0.5 -1.77064,0.5 -0.97385,0 -1.77064,-0.4 -2.39036,-1.1 -0.70826,-0.8 -0.97385,-1.7 -0.97385,-2.7 0,-1 0.26559,-1.8 0.79679,-2.5 0.70825,-0.9 1.59357,-1.4 2.65595,-1.4 0.5312,0 1.15092,0.2 1.68211,0.6 z" /><path
   style="fill:#5b5a5d;stroke-width:0.94091421"
   id="path173"
   d="m 102.90336,31.605578 v 6.4 h 1.9477 v 1.1 h -2.92156 v -7.5 z" /><path
   style="fill:#5b5a5d;stroke-width:0.94091421"
   id="path175"
   d="m 106.3561,35.305578 c 0,-1.1 0.35413,-2 1.06239,-2.7 0.70825,-0.8 1.50504,-1.1 2.47889,-1.1 0.97385,0 1.77064,0.4 2.39036,1.1 0.70826,0.8 0.97386,1.7 0.97386,2.7 0,1.1 -0.35413,2 -1.06239,2.7 -0.70825,0.8 -1.50504,1.1 -2.47889,1.1 -0.88532,0 -1.59358,-0.3 -2.30183,-1 -0.70826,-0.7 -1.06239,-1.6 -1.06239,-2.8 z m 1.06239,0 c 0,0.8 0.26559,1.5 0.70825,2 0.53119,0.5 1.06239,0.8 1.68211,0.8 0.70825,0 1.23945,-0.3 1.77064,-0.8 0.44266,-0.5 0.70825,-1.2 0.70825,-2 0,-0.8 -0.26559,-1.5 -0.70825,-2 -0.44266,-0.5 -1.06239,-0.8 -1.77064,-0.8 -0.70826,0 -1.23945,0.3 -1.77064,0.8 -0.44266,0.5 -0.61972,1.2 -0.61972,2 z" /><path
   style="fill:#5b5a5d;stroke-width:0.94091421"
   id="path177"
   d="m 116.71434,36.005578 v 3 h -0.97385 v -7.5 h 1.15092 c 0.53119,0 0.97385,0 1.23944,0.1 0.2656,0.1 0.53119,0.3 0.79679,0.5 0.35413,0.4 0.53119,1 0.53119,1.6 0,0.7 -0.17706,1.2 -0.61972,1.6 -0.44266,0.4 -0.97385,0.6 -1.68211,0.6 h -0.44266 z m 0,-1 h 0.35413 c 0.88532,0 1.41651,-0.4 1.41651,-1.2 0,-0.8 -0.44266,-1.2 -1.41651,-1.2 h -0.35413 z" /><path
   style="fill:#5b5a5d;stroke-width:0.94091421"
   id="path179"
   d="m 125.21341,32.605578 h -2.65596 v 1.8 h 2.56743 v 1.1 h -2.56743 v 2.5 h 2.65596 v 1.1 h -3.62981 v -7.5 h 3.62981 z" /><path
   style="fill:#5b5a5d;stroke-width:0.94091421"
   id="path181"
   d="m 127.6923,39.005578 v -7.5 h 1.41652 c 0.70825,0 1.15091,0.1 1.59357,0.2 0.44266,0.1 0.79679,0.4 1.15092,0.7 0.70825,0.7 1.06238,1.6 1.06238,2.8 0,1.2 -0.35413,2.1 -1.06238,2.8 -0.35413,0.4 -0.70826,0.6 -1.15092,0.7 -0.35413,0.1 -0.88532,0.2 -1.59357,0.2 h -1.41652 z m 0.97386,-1 h 0.44266 c 0.44266,0 0.79678,-0.1 1.15091,-0.2 0.2656,-0.1 0.53119,-0.3 0.79679,-0.5 0.53119,-0.5 0.70825,-1.2 0.70825,-2 0,-0.8 -0.26559,-1.5 -0.70825,-2 -0.44266,-0.5 -1.06238,-0.7 -1.9477,-0.7 h -0.44266 z" /><path
   style="fill:#5b5a5d;stroke-width:0.94091421"
   id="path183"
   d="m 136.19137,31.605578 v 7.5 h -0.97385 v -7.5 z" /><path
   style="fill:#5b5a5d;stroke-width:0.94091421"
   id="path185"
   d="m 142.83127,37.205578 h -2.83302 l -0.70826,1.8 h -1.06238 l 3.27568,-8 3.18715,8 h -1.06238 z m -0.44266,-1 -0.97385,-2.5 -1.06239,2.5 z" />
<text
   transform="scale(0.96823032,1.0328121)"
   id="text292"
   y="25.834003"
   x="55.020435"
   style="font-style:normal;font-variant:normal;font-weight:500;font-stretch:normal;font-size:26.9913311px;line-height:1.25;font-family:'Noto Serif';-inkscape-font-specification:'Noto Serif Medium';letter-spacing:0px;word-spacing:0px;fill:#5b5a5d;fill-opacity:1;stroke:none;stroke-width:0.92015904"
   xml:space="preserve"><tspan
     style="stroke-width:0.92015904"
     y="25.834003"
     x="55.020435"
     id="tspan290">Y</tspan></text>
<text
   transform="scale(1.0731839,0.93180675)"
   id="text1101"
   y="28.957165"
   x="10.544504"
   style="font-style:normal;font-variant:normal;font-weight:normal;font-stretch:normal;font-size:29.24416542px;line-height:1.25;font-family:'Noto Serif';-inkscape-font-specification:'Noto Serif';letter-spacing:0px;word-spacing:0px;fill:#5b5a5d;fill-opacity:1;stroke:none;stroke-width:0.73110414"
   xml:space="preserve"><tspan
     style="stroke-width:0.73110414"
     y="28.957165"
     x="10.544504"
     id="tspan1099">C</tspan></text>
</svg>