<?xml version="1.0" encoding="UTF-8"?>
<!-- Generator: Adobe Illustrator 18.0.0, SVG Export Plug-In . SVG Version: 6.00 Build 0)  -->
<!DOCTYPE svg PUBLIC "-//W3C//DTD SVG 1.1//EN" "http://www.w3.org/Graphics/SVG/1.1/DTD/svg11.dtd">
<svg version="1.1" id="Layer_1" xmlns="http://www.w3.org/2000/svg" xmlns:xlink="http://www.w3.org/1999/xlink" x="0px" y="0px" viewBox="0 0 174 46" enable-background="new 0 0 174 46" xml:space="preserve">
<g>
	<path fill="#5B5A5D" d="M152,27.6c-0.3,0-0.9,0-1.7-0.3c-1.4-0.6-2.5-1.7-3.7-2.8c-0.7-0.7-3.6-3.6-5.5-5.7c2.2-1,3.7-3.1,3.7-5.8   c0-0.5-0.1-0.9-0.2-1.4c-0.2-0.7-0.6-1.3-1-1.7c0,0-0.1-0.1-0.1-0.1c-0.4-0.4-1.6-1.5-4.9-1.5c-0.1,0-0.2,0-0.3,0c0,0,0,0-0.1,0   c-0.9,0-2.8,0.1-3.5,0.1c-0.6,0-1.9,0-3.1-0.1c0,0,0,0-0.1,0c-0.1,0-0.2,0-0.2,0c-0.1,0-0.2,0-0.3,0c0,0,0,0,0,0c0,0,0,0-0.1,0   c-0.4,0-0.6,0.1-0.6,0.2c0,0.2,0.2,0.3,0.5,0.3c0.4,0,0.9,0,1.1,0.1c0.9,0.2,1.1,0.5,1.2,1.4c0,0.8,0,1.6,0,5.5v4.6   c0,2.4,0,4.5-0.1,5.6c-0.1,0.8-0.2,1.3-0.8,1.4c-0.2,0.1-0.6,0.1-1,0.1c-0.3,0-0.4,0.2-0.4,0.3c0,0.2,0.2,0.3,0.5,0.3   c0,0,0.1,0,0.1,0c0,0,0,0,0,0c1,0,2.7-0.1,3.3-0.1c0.7,0,2.3,0.1,4.1,0.1c0,0,0,0,0,0c0.3,0,0.5-0.1,0.5-0.3c0-0.1-0.1-0.2-0.4-0.2   c-0.4,0-1-0.1-1.3-0.1c-0.8-0.1-0.9-0.7-1-1.4c-0.1-1.1-0.1-3.2-0.1-5.6V10.1c0-0.3,0.1-0.4,0.2-0.5c0.1,0,0.2,0,0.3-0.1   c0.2,0,0.5,0,0.7,0c0.6,0,1.7,0.2,2.6,1c0.6,0.6,1,1.2,1.2,1.9c0.3,0.7,0.3,1.4,0.3,1.9c0,0,0,0.1,0,0.1c0,1.5-0.6,2.6-1.4,3.4   c-0.7,0.6-1.4,0.9-2.1,0.9c-0.5,0-0.7,0.1-0.7,0.3c0,0,0,0,0,0.1l0,0c0,0,0,0,0,0c1.4,1.7,5.5,6.4,6.5,7.3c1.2,1,2.1,1.6,3.5,1.7   c0.6,0.1,1.1,0.1,1.9,0.1h2.4c0.5,0,0.6-0.1,0.6-0.3C152.4,27.7,152.2,27.6,152,27.6z"/>
	<path fill="#5B5A5D" d="M3.5,6C3.1,4.8,2.7,4,2.3,3.7C1.9,3.4,1.3,3.4,1,3.4c-0.3,0-0.5,0-0.5-0.3c0-0.2,0.3-0.3,0.7-0.3   c1.7,0,3.5,0.1,3.8,0.1c0.3,0,1.7-0.1,3.7-0.1c0.5,0,0.7,0.1,0.7,0.3c0,0.3-0.3,0.3-0.6,0.3c-0.3,0-0.6,0-0.8,0.1   C7.6,3.6,7.5,3.9,7.5,4.2c0,0.4,0.3,1.5,0.7,3c0.6,2.2,3.6,12.1,4.2,14h0.1L19,4.1c0.3-0.9,0.6-1.2,0.8-1.2c0.4,0,0.5,0.5,1,1.5   L27.6,21h0.1c0.6-2.2,3.2-10.9,4.4-14.8c0.2-0.8,0.3-1.5,0.3-1.9c0-0.5-0.3-1-1.6-1c-0.3,0-0.6-0.1-0.6-0.3c0-0.2,0.3-0.3,0.8-0.3   c1.7,0,3.1,0.1,3.4,0.1c0.2,0,1.6-0.1,2.7-0.1c0.4,0,0.6,0.1,0.6,0.3c0,0.2-0.2,0.3-0.5,0.3c-0.3,0-0.8,0-1.2,0.2   C35.4,3.8,35,5.2,34.3,7c-1.5,4.1-5,14.6-6.6,19.6c-0.4,1.2-0.5,1.5-1,1.5c-0.3,0-0.5-0.4-1-1.6L18.9,10h-0.1   c-0.6,1.7-5,13.3-6.4,16.4c-0.6,1.3-0.8,1.7-1.2,1.7c-0.3,0-0.5-0.4-0.8-1.2L3.5,6z"/>
	<path fill="#5B5A5D" d="M43.2,15.9c0-4,0-4.7,0-5.5c-0.1-0.9-0.3-1.2-0.9-1.4c-0.3-0.1-0.6-0.1-1-0.1c-0.3,0-0.4-0.1-0.4-0.3   c0-0.2,0.2-0.2,0.6-0.2c1,0,2.9,0.1,3.6,0.1c0.7,0,2.4-0.1,3.5-0.1c0.3,0,0.6,0.1,0.6,0.2c0,0.2-0.2,0.3-0.4,0.3   c-0.3,0-0.5,0-0.8,0.1c-0.7,0.1-1,0.5-1,1.4c-0.1,0.8-0.1,1.6-0.1,5.5v4.6c0,2.5,0,4.6,0.1,5.7c0.1,0.7,0.3,1.1,1.1,1.2   c0.4,0.1,1,0.1,1.4,0.1c0.3,0,0.4,0.2,0.4,0.3c0,0.2-0.2,0.3-0.5,0.3c-1.8,0-3.6-0.1-4.4-0.1c-0.6,0-2.5,0.1-3.5,0.1   c-0.3,0-0.5-0.1-0.5-0.3c0-0.1,0.1-0.3,0.4-0.3c0.4,0,0.7,0,1-0.1c0.6-0.1,0.7-0.5,0.8-1.3c0.1-1.1,0.1-3.2,0.1-5.7V15.9z"/>
	<path fill="#5B5A5D" d="M62.5,17.1h0.1c0.9-1,4.9-4.9,5.7-5.8c0.8-0.9,1.4-1.5,1.4-1.9c0-0.3-0.1-0.5-0.4-0.5   c-0.2-0.1-0.4-0.1-0.4-0.3c0-0.2,0.2-0.2,0.4-0.2c0.6,0,2.1,0.1,2.8,0.1c0.8,0,2.3-0.1,3.2-0.1c0.3,0,0.5,0.1,0.5,0.2   c0,0.2-0.2,0.3-0.4,0.3c-0.4,0-1.1,0.1-1.6,0.3c-0.9,0.3-1.7,0.9-2.9,1.9c-0.9,0.8-4.9,4.6-5.7,5.6c1,1.2,6.3,6.8,7.3,7.8   c1.2,1.1,2.2,2.2,3.7,2.8c0.8,0.3,1.4,0.3,1.7,0.3c0.2,0,0.4,0.1,0.4,0.3c0,0.2-0.2,0.3-0.6,0.3h-2.4c-0.8,0-1.3,0-1.9-0.1   c-1.4-0.1-2.3-0.7-3.5-1.7c-1.2-1-6.4-7-7-7.8l-0.3-0.4h-0.1v2.4c0,2.4,0,4.5,0.1,5.6c0.1,0.7,0.3,1.2,1,1.4c0.4,0.1,1,0.1,1.3,0.1   c0.2,0,0.4,0.2,0.4,0.3c0,0.2-0.2,0.3-0.5,0.3c-1.5,0-3.4-0.1-4.1-0.1c-0.6,0-2.3,0.1-3.4,0.1c-0.3,0-0.5-0.1-0.5-0.3   c0-0.1,0.1-0.3,0.4-0.3c0.4,0,0.7,0,1-0.1c0.6-0.1,0.7-0.6,0.8-1.4c0.1-1.1,0.1-3.2,0.1-5.6v-4.6c0-4,0-4.7,0-5.5   c-0.1-0.9-0.3-1.2-1.2-1.4c-0.2-0.1-0.7-0.1-1.1-0.1c-0.3,0-0.5-0.1-0.5-0.3c0-0.2,0.2-0.2,0.6-0.2c1.4,0,3.1,0.1,3.8,0.1   c0.6,0,2.6-0.1,3.5-0.1c0.4,0,0.6,0.1,0.6,0.2c0,0.2-0.2,0.3-0.4,0.3c-0.3,0-0.4,0-0.8,0.1c-0.7,0.1-1,0.5-1,1.4c0,0.8,0,1.6,0,5.5   V17.1z"/>
	<path fill="#5B5A5D" d="M87.1,15.9c0-4,0-4.7,0-5.5C87,9.5,86.8,9.2,86.2,9c-0.3-0.1-0.6-0.1-1-0.1c-0.3,0-0.4-0.1-0.4-0.3   c0-0.2,0.2-0.2,0.6-0.2c1,0,2.9,0.1,3.6,0.1c0.7,0,2.4-0.1,3.5-0.1c0.3,0,0.6,0.1,0.6,0.2c0,0.2-0.2,0.3-0.4,0.3   c-0.3,0-0.5,0-0.8,0.1c-0.7,0.1-1,0.5-1,1.4c-0.1,0.8-0.1,1.6-0.1,5.5v4.6c0,2.5,0,4.6,0.1,5.7c0.1,0.7,0.3,1.1,1.1,1.2   c0.4,0.1,1,0.1,1.4,0.1c0.3,0,0.4,0.2,0.4,0.3c0,0.2-0.2,0.3-0.5,0.3c-1.8,0-3.6-0.1-4.4-0.1c-0.6,0-2.5,0.1-3.5,0.1   c-0.3,0-0.5-0.1-0.5-0.3c0-0.1,0.1-0.3,0.4-0.3c0.4,0,0.7,0,1-0.1c0.6-0.1,0.7-0.5,0.8-1.3c0.1-1.1,0.1-3.2,0.1-5.7V15.9z"/>
	<path fill="#5B5A5D" d="M106.5,20c-0.2,0-0.2,0-0.3,0.2l-1.8,4.4c-0.3,0.8-0.5,1.6-0.5,2c0,0.6,0.3,0.9,1.3,0.9h0.5   c0.4,0,0.5,0.2,0.5,0.3c0,0.3-0.2,0.3-0.5,0.3c-1.1,0-2.7-0.1-3.7-0.1c-0.3,0-2.1,0.1-3.9,0.1c-0.4,0-0.6-0.1-0.6-0.3   c0-0.2,0.1-0.3,0.4-0.3c0.3,0,0.7,0,1,0c1.5-0.2,2.1-1.2,2.8-2.9l8.8-20.5c0.4-0.9,0.6-1.3,1-1.3c0.5,0,0.7,0.3,1,1   c0.8,1.8,6.4,15.1,8.6,20c1.3,2.9,2.3,3.4,2.9,3.5c0.5,0.1,0.9,0.1,1.3,0.1c0.3,0,0.5,0.1,0.5,0.3c0,0.3-0.2,0.3-1.5,0.3   c-1.2,0-3.6,0-6.5-0.1c-0.6,0-1,0-1-0.3c0-0.2,0.1-0.3,0.4-0.3c0.2,0,0.5-0.3,0.3-0.7l-2.6-6.5c-0.1-0.2-0.2-0.2-0.3-0.2H106.5z    M113.6,18.2c0.2,0,0.2-0.1,0.2-0.2l-3.2-8.3c0-0.1-0.1-0.3-0.2-0.3c-0.1,0-0.2,0.2-0.2,0.3l-3.3,8.2c-0.1,0.2,0,0.2,0.1,0.2H113.6   z"/>
	<path fill="#5B5A5D" d="M162.7,10l-4,0.1c-1.6,0-2.2,0.2-2.6,0.8c-0.3,0.4-0.4,0.7-0.5,0.9c-0.1,0.2-0.1,0.3-0.3,0.3   c-0.2,0-0.2-0.2-0.2-0.4c0-0.4,0.5-3,0.6-3.2c0.1-0.3,0.2-0.5,0.3-0.5c0.2,0,0.5,0.2,1.2,0.3c0.8,0.1,1.8,0.1,2.7,0.1h11   c0.9,0,1.4-0.1,1.8-0.1c0.4-0.1,0.6-0.1,0.7-0.1c0.2,0,0.2,0.2,0.2,0.6c0,0.6-0.1,2.5-0.1,3.2c0,0.3-0.1,0.4-0.2,0.4   c-0.2,0-0.3-0.1-0.3-0.5l0-0.3c-0.1-0.7-0.8-1.5-3.2-1.5l-3.4-0.1v10.6c0,2.4,0,4.5,0.2,5.6c0.1,0.7,0.2,1.2,1,1.4   c0.4,0.1,1,0.1,1.4,0.1c0.3,0,0.4,0.2,0.4,0.3c0,0.2-0.2,0.3-0.5,0.3c-1.8,0-3.6-0.1-4.4-0.1c-0.6,0-2.5,0.1-3.5,0.1   c-0.3,0-0.5-0.1-0.5-0.3c0-0.1,0.1-0.3,0.4-0.3c0.4,0,0.7,0,1-0.1c0.6-0.1,0.7-0.6,0.8-1.4c0.1-1.1,0.1-3.2,0.1-5.6V10z"/>
	<g>
		<path fill="#5B5A5D" d="M8.3,32.9l2.1,5.2l2.1-5.2h1.2l-3.4,8l-3.3-8H8.3z"/>
		<path fill="#5B5A5D" d="M17.1,32.9v7.5h-1.1v-7.5H17.1z"/>
		<path fill="#5B5A5D" d="M24.4,34l-0.9,0.5c-0.2-0.3-0.3-0.5-0.5-0.6c-0.2-0.1-0.4-0.2-0.6-0.2c-0.3,0-0.6,0.1-0.8,0.3    c-0.2,0.2-0.3,0.4-0.3,0.7c0,0.4,0.3,0.7,0.8,0.9l0.7,0.3c0.6,0.2,1.1,0.5,1.3,0.9c0.3,0.4,0.4,0.8,0.4,1.3c0,0.7-0.2,1.3-0.7,1.7    c-0.5,0.5-1,0.7-1.7,0.7c-0.6,0-1.2-0.2-1.6-0.6c-0.4-0.4-0.7-0.9-0.8-1.6l1.1-0.3c0.1,0.4,0.1,0.7,0.3,0.9c0.2,0.3,0.6,0.5,1,0.5    c0.4,0,0.6-0.1,0.9-0.4c0.2-0.2,0.3-0.5,0.3-0.9c0-0.1,0-0.3-0.1-0.4c0-0.1-0.1-0.2-0.2-0.3c-0.1-0.1-0.2-0.2-0.3-0.3    s-0.3-0.2-0.5-0.3l-0.7-0.3c-1-0.4-1.5-1.1-1.5-1.9c0-0.6,0.2-1,0.6-1.4c0.4-0.4,1-0.6,1.6-0.6C23.2,32.7,23.9,33.1,24.4,34z"/>
		<path fill="#5B5A5D" d="M28.3,32.9v4.5c0,0.6,0.1,1.1,0.3,1.4c0.3,0.4,0.8,0.6,1.3,0.6c0.6,0,1-0.2,1.3-0.6    c0.2-0.3,0.3-0.8,0.3-1.4v-4.5h1.1v4.8c0,0.8-0.2,1.4-0.7,1.9c-0.6,0.6-1.2,0.9-2,0.9s-1.5-0.3-2-0.9c-0.5-0.5-0.7-1.2-0.7-1.9    v-4.8H28.3z"/>
		<path fill="#5B5A5D" d="M39.9,38.5h-3.2l-0.8,1.8h-1.2l3.7-8l3.6,8h-1.2L39.9,38.5z M39.5,37.5l-1.1-2.5l-1.2,2.5H39.5z"/>
		<path fill="#5B5A5D" d="M45.3,32.9v6.4h2.2v1.1h-3.3v-7.5H45.3z"/>
		<path fill="#5B5A5D" d="M58.6,38.5h-3.2l-0.8,1.8h-1.2l3.7-8l3.6,8h-1.2L58.6,38.5z M58.1,37.5L57,34.9l-1.2,2.5H58.1z"/>
		<path fill="#5B5A5D" d="M65.4,37.2l2.3,3.2h-1.4l-2.1-3.1H64v3.1h-1.1v-7.5h1.3c1,0,1.7,0.2,2.1,0.6c0.5,0.4,0.7,1,0.7,1.6    c0,0.5-0.2,1-0.5,1.4C66.3,36.8,65.9,37.1,65.4,37.2z M64,36.3h0.4c1.1,0,1.6-0.4,1.6-1.2c0-0.8-0.5-1.1-1.6-1.1H64V36.3z"/>
		<path fill="#5B5A5D" d="M72.1,33.9v6.4h-1.1v-6.4h-1.7v-1.1h4.6v1.1H72.1z"/>
		<path fill="#5B5A5D" d="M84.6,33.9h-3v1.8h2.9v1.1h-2.9v2.5h3v1.1h-4.1v-7.5h4.1V33.9z"/>
		<path fill="#5B5A5D" d="M87.3,40.3v-8l5.5,5.7v-5.2h1.1v7.9l-5.5-5.7v5.2H87.3z"/>
		<path fill="#5B5A5D" d="M102.6,33.3v1.3c-0.7-0.5-1.3-0.8-2-0.8c-0.8,0-1.4,0.3-1.9,0.8c-0.5,0.5-0.8,1.2-0.8,2    c0,0.8,0.3,1.4,0.8,2c0.5,0.5,1.2,0.8,1.9,0.8c0.4,0,0.7-0.1,1-0.2c0.2-0.1,0.3-0.2,0.5-0.3c0.2-0.1,0.3-0.2,0.5-0.4v1.4    c-0.6,0.4-1.3,0.5-2,0.5c-1.1,0-2-0.4-2.7-1.1c-0.8-0.8-1.1-1.7-1.1-2.7c0-1,0.3-1.8,0.9-2.5c0.8-0.9,1.8-1.4,3-1.4    C101.3,32.7,102,32.9,102.6,33.3z"/>
		<path fill="#5B5A5D" d="M106.8,37.1l-2.4-4.2h1.3l1.7,3l1.7-3h1.3l-2.5,4.2v3.2h-1.1V37.1z"/>
		<path fill="#5B5A5D" d="M117.7,33.3v1.3c-0.7-0.5-1.3-0.8-2-0.8c-0.8,0-1.4,0.3-1.9,0.8c-0.5,0.5-0.8,1.2-0.8,2    c0,0.8,0.3,1.4,0.8,2c0.5,0.5,1.2,0.8,1.9,0.8c0.4,0,0.7-0.1,1-0.2c0.2-0.1,0.3-0.2,0.5-0.3c0.2-0.1,0.3-0.2,0.5-0.4v1.4    c-0.6,0.4-1.3,0.5-2,0.5c-1.1,0-2-0.4-2.7-1.1c-0.8-0.8-1.1-1.7-1.1-2.7c0-1,0.3-1.8,0.9-2.5c0.8-0.9,1.8-1.4,3-1.4    C116.4,32.7,117.1,32.9,117.7,33.3z"/>
		<path fill="#5B5A5D" d="M121.5,32.9v6.4h2.2v1.1h-3.3v-7.5H121.5z"/>
		<path fill="#5B5A5D" d="M125.4,36.6c0-1.1,0.4-2,1.2-2.7c0.8-0.8,1.7-1.1,2.8-1.1c1.1,0,2,0.4,2.7,1.1c0.8,0.8,1.1,1.7,1.1,2.7    c0,1.1-0.4,2-1.2,2.7c-0.8,0.8-1.7,1.1-2.8,1.1c-1,0-1.8-0.3-2.6-1C125.8,38.7,125.4,37.8,125.4,36.6z M126.6,36.6    c0,0.8,0.3,1.5,0.8,2c0.6,0.5,1.2,0.8,1.9,0.8c0.8,0,1.4-0.3,2-0.8c0.5-0.5,0.8-1.2,0.8-2c0-0.8-0.3-1.5-0.8-2    c-0.5-0.5-1.2-0.8-2-0.8c-0.8,0-1.4,0.3-2,0.8C126.8,35.1,126.6,35.8,126.6,36.6z"/>
		<path fill="#5B5A5D" d="M137.1,37.3v3h-1.1v-7.5h1.3c0.6,0,1.1,0,1.4,0.1c0.3,0.1,0.6,0.3,0.9,0.5c0.4,0.4,0.6,1,0.6,1.6    c0,0.7-0.2,1.2-0.7,1.6c-0.5,0.4-1.1,0.6-1.9,0.6H137.1z M137.1,36.3h0.4c1,0,1.6-0.4,1.6-1.2c0-0.8-0.5-1.2-1.6-1.2h-0.4V36.3z"/>
		<path fill="#5B5A5D" d="M146.7,33.9h-3v1.8h2.9v1.1h-2.9v2.5h3v1.1h-4.1v-7.5h4.1V33.9z"/>
		<path fill="#5B5A5D" d="M149.5,40.3v-7.5h1.6c0.8,0,1.3,0.1,1.8,0.2c0.5,0.1,0.9,0.4,1.3,0.7c0.8,0.7,1.2,1.6,1.2,2.8    c0,1.2-0.4,2.1-1.2,2.8c-0.4,0.4-0.8,0.6-1.3,0.7c-0.4,0.1-1,0.2-1.8,0.2H149.5z M150.6,39.3h0.5c0.5,0,0.9-0.1,1.3-0.2    c0.3-0.1,0.6-0.3,0.9-0.5c0.6-0.5,0.8-1.2,0.8-2c0-0.8-0.3-1.5-0.8-2c-0.5-0.5-1.2-0.7-2.2-0.7h-0.5V39.3z"/>
		<path fill="#5B5A5D" d="M159.1,32.9v7.5H158v-7.5H159.1z"/>
		<path fill="#5B5A5D" d="M166.6,38.5h-3.2l-0.8,1.8h-1.2l3.7-8l3.6,8h-1.2L166.6,38.5z M166.1,37.5l-1.1-2.5l-1.2,2.5H166.1z"/>
	</g>
</g>
</svg>