<?xml version="1.0" encoding="UTF-8" standalone="no"?>
<svg
   xmlns:dc="http://purl.org/dc/elements/1.1/"
   xmlns:cc="http://creativecommons.org/ns#"
   xmlns:rdf="http://www.w3.org/1999/02/22-rdf-syntax-ns#"
   xmlns:svg="http://www.w3.org/2000/svg"
   xmlns="http://www.w3.org/2000/svg"
   xmlns:sodipodi="http://sodipodi.sourceforge.net/DTD/sodipodi-0.dtd"
   xmlns:inkscape="http://www.inkscape.org/namespaces/inkscape"
   id="svg913"
   version="1.1"
   viewBox="0 0 59.2 59.2"
   sodipodi:docname="user-logged.svg.old.svg"
   inkscape:version="0.92.4 5da689c313, 2019-01-14">
  <sodipodi:namedview
     pagecolor="#ffffff"
     bordercolor="#666666"
     borderopacity="1"
     objecttolerance="10"
     gridtolerance="10"
     guidetolerance="10"
     inkscape:pageopacity="0"
     inkscape:pageshadow="2"
     inkscape:window-width="1920"
     inkscape:window-height="1060"
     id="namedview860"
     showgrid="false"
     inkscape:zoom="14.577703"
     inkscape:cx="29.6"
     inkscape:cy="29.6"
     inkscape:window-x="900"
     inkscape:window-y="389"
     inkscape:window-maximized="0"
     inkscape:current-layer="svg913" />
  <metadata
     id="metadata919">
    <rdf:RDF>
      <cc:Work
         rdf:about="">
        <dc:format>image/svg+xml</dc:format>
        <dc:type
           rdf:resource="http://purl.org/dc/dcmitype/StillImage" />
        <dc:title></dc:title>
      </cc:Work>
    </rdf:RDF>
  </metadata>
  <defs
     id="defs917" />
  <path
     style="fill:#5b5a5d;fill-opacity:1"
     id="path911"
     d="M31 3.4c3.9 0 6.7 1.6 8.4 3.4 1.6 1.7 1.7 3.8 1.6 4.5v6.2l.3.3c.4.4.7.9.7 1.4V23c0 .6-.3 1.2-.9 1.6l-.3.2-.1.4-.3.9v.1l-.1.2c-.1.3-.2.5-.3.8-.1.1-.1.3-.2.4 0 0 0 .1-.1.1-.1.1-.1.3-.2.4 0 0 0 .1-.1.1-.1.3-.3.5-.4.8-.2.4-.5.9-.7 1.2-.1.2-.2.3-.3.5-.2.3-.4.6-.5.8-.1.1-.1.2-.2.2l-.2.2-.1.3V36c0 1.6.9 3.1 2.4 3.9l8.9 4.6c2.3 1.2 3.7 3.4 3.7 5.8v2.1H9.8v-2.1c0-2.4 1.4-4.7 3.7-5.8l8.9-4.6c1.5-.8 2.4-2.3 2.4-3.9v-3.8l-.2-.2-.2-.2-.2-.2c-.1-.2-.3-.5-.5-.8-.1-.1-.2-.3-.3-.5-.2-.4-.5-.8-.7-1.2-.1-.2-.3-.5-.4-.8 0 0 0-.1-.1-.1-.1-.2-.2-.4-.2-.5 0 0 0-.1-.1-.1-.1-.1-.1-.2-.2-.4-.1-.3-.2-.5-.3-.8l-.1-.2v-.1l-.3-.9-.1-.4-.3-.2c-.6-.4-.9-.9-.9-1.6v-3.8c0-.5.2-1 .7-1.4l.3-.3v-6.2c0-.7 0-2.8 1.6-4.5C24 5 26.9 3.4 30.8 3.4h.2m0-2h-.1-.1c-5.4 0-8.5 2.5-9.9 4-2.1 2.3-2.2 4.9-2.2 6v5.3c-.6.7-1 1.6-1 2.6V23c0 1.2.6 2.3 1.5 3 .1.2.1.4.2.6v.1l.1.2.3.9c.1.1.1.3.2.4v.1c.1.2.1.3.2.4v.1c.2.3.3.6.4.9.2.5.5.9.8 1.3.1.2.2.3.3.5.2.3.3.5.5.7l.1.1c.1.1.1.2.2.2V36c0 .9-.5 1.7-1.3 2.1l-8.9 4.6c-2.9 1.5-4.7 4.4-4.7 7.6v4.1H54v-4.1c0-3.2-1.8-6.1-4.7-7.6l-8.9-4.6c-.9-.5-1.4-1.3-1.4-2.1v-3.1c.1-.1.1-.2.2-.2l.1-.1c.1-.2.3-.4.5-.7v-.1c.1-.2.2-.3.3-.5v-.1c.3-.4.5-.9.8-1.3.1-.3.3-.6.4-.8l.1-.1c.1-.1.1-.3.2-.4l.1-.1c.1-.1.1-.3.2-.4l.3-.9.1-.2v-.1c.1-.2.1-.4.2-.6 1-.7 1.5-1.8 1.5-3v-3.8c0-.9-.4-1.8-1-2.6v-5.3c.1-1-.1-3.7-2.2-6-1.3-1.7-4.4-4.2-9.8-4.2z" />
</svg>
